<?xml version="1.0" encoding="utf-8"?>
<!-- Generator: Adobe Illustrator 25.2.1, SVG Export Plug-In . SVG Version: 6.00 Build 0)  -->
<svg version="1.1" id="Layer_1" xmlns="http://www.w3.org/2000/svg" xmlns:xlink="http://www.w3.org/1999/xlink" x="0px" y="0px"
	 viewBox="0 0 122.9 122.9" style="enable-background:new 0 0 122.9 122.9;" xml:space="preserve">
<style type="text/css">
	.st0{fill:#EA002A;}
</style>
<g>
	<path class="st0" d="M61.4,0L61.4,0L61.4,0c17,0,32.3,6.9,43.4,18s18,26.5,18,43.4h0v0l0,0h0c0,17-6.9,32.3-18,43.4
		c-11.1,11.1-26.5,18-43.4,18v0h0l0,0v0c-17,0-32.3-6.9-43.4-18C6.9,93.8,0,78.4,0,61.4h0v0v0h0c0-17,6.9-32.3,18-43.4
		C29.1,6.9,44.5,0,61.4,0L61.4,0L61.4,0L61.4,0z M71.7,42.5c1.9-2,1.9-5.1-0.1-7c-2-1.9-5.1-1.9-7,0.1L42.8,58.1l3.6,3.5l-3.6-3.5
		c-1.9,2-1.9,5.1,0.1,7c0.1,0.1,0.1,0.1,0.2,0.2l21.6,22.1c1.9,2,5,2,7,0.1c2-1.9,2-5,0.1-7L53.2,61.5L71.7,42.5L71.7,42.5z"/>
</g>
</svg>
